<?xml version="1.0" encoding="UTF-8" standalone="no"?>
<svg width="10px" height="11px" viewBox="0 0 10 11" version="1.1" xmlns="http://www.w3.org/2000/svg" xmlns:xlink="http://www.w3.org/1999/xlink" xmlns:sketch="http://www.bohemiancoding.com/sketch/ns">
    <!-- Generator: Sketch 3.3.2 (12043) - http://www.bohemiancoding.com/sketch -->
    <title>Fill 754 Copy</title>
    <desc>Created with Sketch.</desc>
    <defs></defs>
    <g id="Pictos" stroke="none" stroke-width="1" fill="none" fill-rule="evenodd" sketch:type="MSPage">
        <path d="M5,0.776 C2.23861111,0.776 0,3.01461111 0,5.776 C0,8.53752778 2.23861111,10.776 5,10.776 C7.76138889,10.776 10,8.53752778 10,5.776 C10,3.01461111 7.76138889,0.776 5,0.776 L5,0.776 Z M5.64166667,2.32475 C5.84194444,2.32391667 6.00041667,2.40113889 6.10236111,2.52197222 C6.20472222,2.64238889 6.25152778,2.801 6.25152778,2.96377778 C6.25152778,3.38572222 5.91638889,3.78502778 5.44847222,3.78655556 L5.43666667,3.78655556 C5.06986111,3.78655556 4.84083333,3.51433333 4.83833333,3.11836111 C4.83902778,2.77711111 5.11333333,2.32683333 5.64166667,2.32475 L5.64166667,2.32475 Z M6.24708333,7.92975 C5.54777778,8.69336111 4.68527778,9.14905556 4.35708333,9.15336111 L4.355,9.15336111 C4.24388889,9.15336111 4.12875,9.12391667 4.04513889,9.03322222 C3.96125,8.94183333 3.91791667,8.80266667 3.91791667,8.60405556 C3.91791667,8.45211111 3.94305556,8.12391667 3.99986111,7.88669444 L4.50152778,5.72544444 C4.52583333,5.60488889 4.53930556,5.52016667 4.54,5.47641667 C4.45319444,5.50780556 4.07166667,5.78711111 3.88333333,5.93363889 L3.81666667,5.9835 L3.62138889,5.45308333 L3.65972222,5.41752778 C4.36569444,4.76461111 5.21402778,4.24155556 5.60319444,4.23655556 C5.71430556,4.23488889 5.81111111,4.29169444 5.86319444,4.38336111 C5.91666667,4.47377778 5.93763889,4.59141667 5.93763889,4.73280556 C5.93763889,4.88697222 5.91166667,5.20877778 5.86361111,5.41752778 L5.31319444,7.65766667 C5.28694444,7.76544444 5.27638889,7.84405556 5.27638889,7.89377778 C5.27611111,7.92197222 5.28013889,7.94016667 5.28277778,7.94877778 C5.34152778,7.94169444 5.73222222,7.67363889 5.98527778,7.441 L6.045,7.38669444 L6.25375,7.84475 L6.28305556,7.88961111 L6.24708333,7.92975 L6.24708333,7.92975 Z" id="Fill-754-Copy" fill="#000000" sketch:type="MSShapeGroup"></path>
    </g>
</svg>